<?xml version="1.0"?>
<svg xmlns="http://www.w3.org/2000/svg" id="Capa_1" enable-background="new 0 0 512 512" height="512px" viewBox="0 0 512 512" width="512px" class=""><g><path d="m391 437c0 53.12-79.85 75-135 75-54.22 0-135-21.47-135-75 0-33.99 37.1-62.14 94.51-71.72h80.98c57.41 9.58 94.51 37.73 94.51 71.72z" fill="#76e2f8" data-original="#76E2F8" class="" style="fill:#2D88AB" data-old_color="#76e2f8"/><path d="m391 437c0 53.12-79.85 75-135 75v-146.72h40.49c57.41 9.58 94.51 37.73 94.51 71.72z" fill="#4bb9ec" data-original="#4BB9EC" class="" style="fill:#0C5774" data-old_color="#4bb9ec"/><path d="m256 0c-90.98 0-165 74.02-165 165 0 57.6 17.09 80.85 99.24 192.55 47.83 65.02 53.33 72.94 65.76 89.98 15.57-21.35 17.47-24.33 65.67-89.87 82.22-111.81 99.33-135.08 99.33-192.66 0-90.98-74.02-165-165-165zm0 240c-41.36 0-75-33.65-75-75s33.64-75 75-75 75 33.65 75 75-33.64 75-75 75z" fill="#ff641a" data-original="#FF641A" class="active-path" data-old_color="#ff641a" style="fill:#DF0202"/><path d="m421 165c0 57.58-17.11 80.85-99.33 192.66-48.2 65.54-50.1 68.52-65.67 89.87v-207.53c41.36 0 75-33.65 75-75s-33.64-75-75-75v-90c90.98 0 165 74.02 165 165z" fill="#f00" data-original="#F00" class="" data-old_color="#f00" style="fill:#C50000"/></g> </svg>
