<svg height="512pt" viewBox="0 0 512 512.00006" width="512pt" xmlns="http://www.w3.org/2000/svg"><path d="m511.929688 419.757812-65.757813 65.757813c-44.648437 44.660156-115.125 25.683594-171.230469-4.480469-46.371094-24.933594-94.578125-63.265625-137.378906-106.667968-53.460938-54.226563-98.449219-116.382813-120.753906-170.230469-31.386719-75.753907-12.988282-116.636719 7.964844-137.589844l66.546874-66.546875 135.460938 135.460938c-20.355469 20.324218-49.980469 49.929687-75.285156 75.0625 13.808594 19.714843 38.101562 47.390624 70.097656 79.8125l.558594.5625c24.914062 25.3125 50.117187 48.066406 79.8125 68.144531 26.472656-26.65625 55.988281-56.1875 74.515625-74.734375zm0 0" fill="#ff5b5b"/><path d="m511.929688 419.757812-65.757813 65.757813c-44.648437 44.660156-115.125 25.683594-171.230469-4.480469-46.371094-24.933594-94.578125-63.265625-137.378906-106.667968l84.03125-84.03125.558594.5625c24.914062 25.3125 50.117187 48.066406 79.8125 68.144531 26.472656-26.65625 55.988281-56.1875 74.515625-74.734375zm0 0" fill="#e63950"/><g fill="#76e2f8"><path d="m450.941406 241.949219h-29.992187c0-41.601563-17.027344-79.292969-44.46875-106.5-27.117188-26.851563-64.398438-43.46875-105.5-43.46875v-29.992188c49.359375 0 94.140625 19.984375 126.695312 52.265625 32.882813 32.632813 53.265625 77.824219 53.265625 127.695313zm0 0"/><path d="m390.957031 241.949219h-29.996093c0-25.066407-10.296876-47.769531-26.894532-64.085938-16.246094-16.019531-38.53125-25.894531-63.085937-25.894531v-29.996094c32.8125 0 62.609375 13.246094 84.28125 34.695313 22.027343 21.742187 35.695312 51.945312 35.695312 85.28125zm0 0"/><path d="m330.96875 241.949219h-29.992188c0-8.519531-3.570312-16.226563-9.308593-21.6875-5.378907-5.148438-12.667969-8.308594-20.6875-8.308594v-29.992187c16.289062 0 31.074219 6.527343 41.890625 17.097656 11.160156 10.90625 18.097656 26.101562 18.097656 42.890625zm0 0"/></g><path d="m312.871094 199.058594c11.160156 10.90625 18.097656 26.101562 18.097656 42.890625h-29.992188c0-8.519531-3.570312-16.226563-9.308593-21.6875zm0 0" fill="#4bb9ec"/><path d="m355.261719 156.667969c22.027343 21.742187 35.695312 51.945312 35.695312 85.28125h-29.996093c0-25.066407-10.296876-47.769531-26.894532-64.085938zm0 0" fill="#4bb9ec"/><path d="m450.941406 241.949219h-29.992187c0-41.601563-17.027344-79.292969-44.46875-106.5l21.195312-21.195313c32.882813 32.632813 53.265625 77.824219 53.265625 127.695313zm0 0" fill="#4bb9ec"/></svg>