<?xml version="1.0"?>
<svg xmlns="http://www.w3.org/2000/svg" height="512px" viewBox="0 0 512 512" width="512px" class=""><g><path d="m437.019531 74.980469c-48.351562-48.351563-112.640625-74.980469-181.019531-74.980469s-132.667969 26.628906-181.019531 74.980469c-48.351563 48.351562-74.980469 112.640625-74.980469 181.019531 0 73.660156 31.59375 143.453125 86.820312 192.117188l16.007813 42.46875c2.371094 6.296874 8.644531 10.246093 15.351563 9.652343l48.511718-4.265625c28.554688 10.636719 58.582032 16.027344 89.308594 16.027344 68.378906 0 132.667969-26.628906 181.019531-74.980469 48.351563-48.351562 74.980469-112.640625 74.980469-181.019531s-26.628906-132.667969-74.980469-181.019531zm0 0" fill="#fd0134" data-original="#FD0134" class="" style="fill:#92C644" data-old_color="#fd0134"/><path d="m437.019531 74.980469c-48.351562-48.351563-112.640625-74.980469-181.019531-74.980469v512c68.378906 0 132.667969-26.628906 181.019531-74.980469 48.351563-48.351562 74.980469-112.640625 74.980469-181.019531s-26.628906-132.667969-74.980469-181.019531zm0 0" fill="#ad0123" data-original="#AD0123" class="" style="fill:#729A36" data-old_color="#ad0123"/><path d="m423.148438 256c0 92.3125-74.835938 167.148438-167.148438 167.148438s-167.148438-74.835938-167.148438-167.148438 74.835938-167.148438 167.148438-167.148438 167.148438 74.835938 167.148438 167.148438zm0 0" fill="#ebf7ff" data-original="#EBF7FF" class="" style="fill:#FBFFF4" data-old_color="#ebf7ff"/><path d="m423.148438 256c0 92.3125-74.835938 167.148438-167.148438 167.148438v-334.296876c92.3125 0 167.148438 74.835938 167.148438 167.148438zm0 0" fill="#c4e5ff" data-original="#C4E5FF" class="" style="fill:#ECFCD3" data-old_color="#c4e5ff"/><g fill="#31394a"><path d="m258.988281 154.605469c-31.933593 0-57.910156 25.980469-57.910156 57.910156v.78125c0 8.285156 6.714844 15 15 15s15-6.714844 15-15v-.78125c0-15.386719 12.519531-27.910156 27.910156-27.910156 15.386719 0 27.90625 12.523437 27.90625 27.910156 0 15.390625-12.519531 27.910156-27.90625 27.910156h-3.03125c-8.28125 0-15 6.714844-15 15v39.628907c0 8.28125 6.71875 15 15 15 8.285157 0 15-6.71875 15-15v-25.875c26.207031-5.527344 45.9375-28.835938 45.9375-56.664063 0-31.929687-25.976562-57.910156-57.90625-57.910156zm0 0" data-original="#31394A" class="active-path" style="fill:#31394A"/><path d="m255.957031 319.527344c-8.285156 0-15 6.714844-15 15v7.867187c0 8.28125 6.714844 15 15 15 8.285157 0 15-6.71875 15-15v-7.867187c0-8.285156-6.714843-15-15-15zm0 0" data-original="#31394A" class="active-path" style="fill:#31394A"/></g></g> </svg>
